<svg width="28" height="28" viewBox="0 0 28 28" fill="none" xmlns="http://www.w3.org/2000/svg">
<path fill-rule="evenodd" clip-rule="evenodd" d="M8.40005 1.40002C8.02875 1.40002 7.67265 1.54752 7.4101 1.81007C7.14755 2.07263 7.00005 2.42872 7.00005 2.80002V4.20002H5.60005C4.85744 4.20002 4.14525 4.49502 3.62015 5.02013C3.09505 5.54523 2.80005 6.25742 2.80005 7.00002V23.8C2.80005 24.5426 3.09505 25.2548 3.62015 25.7799C4.14525 26.305 4.85744 26.6 5.60005 26.6H22.4C23.1427 26.6 23.8548 26.305 24.3799 25.7799C24.905 25.2548 25.2 24.5426 25.2 23.8V7.00002C25.2 6.25742 24.905 5.54523 24.3799 5.02013C23.8548 4.49502 23.1427 4.20002 22.4 4.20002H21V2.80002C21 2.42872 20.8525 2.07263 20.59 1.81007C20.3274 1.54752 19.9714 1.40002 19.6 1.40002C19.2287 1.40002 18.8727 1.54752 18.6101 1.81007C18.3475 2.07263 18.2 2.42872 18.2 2.80002V4.20002H9.80005V2.80002C9.80005 2.42872 9.65255 2.07263 9.39 1.81007C9.12745 1.54752 8.77135 1.40002 8.40005 1.40002ZM8.40005 8.40002C8.02875 8.40002 7.67265 8.54752 7.4101 8.81008C7.14755 9.07263 7.00005 9.42872 7.00005 9.80002C7.00005 10.1713 7.14755 10.5274 7.4101 10.79C7.67265 11.0525 8.02875 11.2 8.40005 11.2H19.6C19.9714 11.2 20.3274 11.0525 20.59 10.79C20.8525 10.5274 21 10.1713 21 9.80002C21 9.42872 20.8525 9.07263 20.59 8.81008C20.3274 8.54752 19.9714 8.40002 19.6 8.40002H8.40005Z" fill="#2C4364"/>
</svg>
