<svg width="28" height="28" viewBox="0 0 28 28" fill="none" xmlns="http://www.w3.org/2000/svg">
<path d="M8.83333 7.66667V3M18.1667 7.66667V3M7.66667 12.3333H19.3333M5.33333 26H21.6667C22.2855 26 22.879 25.7542 23.3166 25.3166C23.7542 24.879 24 24.2855 24 23.6667V7.66667C24 7.04783 23.7542 6.45434 23.3166 6.01675C22.879 5.57917 22.2855 5.33333 21.6667 5.33333H5.33333C4.71449 5.33333 4.121 5.57917 3.68342 6.01675C3.24583 6.45434 3 7.04783 3 7.66667V23.6667C3 24.2855 3.24583 24.879 3.68342 25.3166C4.121 25.7542 4.71449 26 5.33333 26Z" stroke="#2C4364" stroke-width="2" stroke-linecap="round" stroke-linejoin="round"/>
</svg>
