<svg width="24" height="26" viewBox="0 0 24 26" fill="none" xmlns="http://www.w3.org/2000/svg">
<path fill-rule="evenodd" clip-rule="evenodd" d="M6.40005 0.400024C6.02875 0.400024 5.67265 0.547524 5.4101 0.810075C5.14755 1.07263 5.00005 1.42872 5.00005 1.80002V3.20002H3.60005C2.85744 3.20002 2.14525 3.49502 1.62015 4.02013C1.09505 4.54523 0.800049 5.25742 0.800049 6.00002V22.8C0.800049 23.5426 1.09505 24.2548 1.62015 24.7799C2.14525 25.305 2.85744 25.6 3.60005 25.6H20.4C21.1427 25.6 21.8548 25.305 22.3799 24.7799C22.905 24.2548 23.2 23.5426 23.2 22.8V6.00002C23.2 5.25742 22.905 4.54523 22.3799 4.02013C21.8548 3.49502 21.1427 3.20002 20.4 3.20002H19V1.80002C19 1.42872 18.8525 1.07263 18.59 0.810075C18.3274 0.547524 17.9714 0.400024 17.6 0.400024C17.2287 0.400024 16.8727 0.547524 16.6101 0.810075C16.3475 1.07263 16.2 1.42872 16.2 1.80002V3.20002H7.80005V1.80002C7.80005 1.42872 7.65255 1.07263 7.39 0.810075C7.12745 0.547524 6.77135 0.400024 6.40005 0.400024ZM6.40005 7.40002C6.02875 7.40002 5.67265 7.54752 5.4101 7.81008C5.14755 8.07263 5.00005 8.42872 5.00005 8.80002C5.00005 9.17133 5.14755 9.52742 5.4101 9.78997C5.67265 10.0525 6.02875 10.2 6.40005 10.2H17.6C17.9714 10.2 18.3274 10.0525 18.59 9.78997C18.8525 9.52742 19 9.17133 19 8.80002C19 8.42872 18.8525 8.07263 18.59 7.81008C18.3274 7.54752 17.9714 7.40002 17.6 7.40002H6.40005Z" fill="#2C4364"/>
</svg>
