<svg width="28" height="28" viewBox="0 0 28 28" fill="none" xmlns="http://www.w3.org/2000/svg">
<path d="M12.8332 5.83332H6.99984C6.381 5.83332 5.78751 6.07915 5.34992 6.51674C4.91234 6.95432 4.6665 7.54781 4.6665 8.16665V21C4.6665 21.6188 4.91234 22.2123 5.34992 22.6499C5.78751 23.0875 6.381 23.3333 6.99984 23.3333H19.8332C20.452 23.3333 21.0455 23.0875 21.4831 22.6499C21.9207 22.2123 22.1665 21.6188 22.1665 21V15.1667M20.5168 4.18365C20.7321 3.9608 20.9896 3.78304 21.2742 3.66075C21.5589 3.53846 21.8651 3.47409 22.1749 3.4714C22.4847 3.46871 22.792 3.52775 23.0787 3.64507C23.3655 3.76239 23.626 3.93565 23.8451 4.15473C24.0642 4.37381 24.2374 4.63433 24.3548 4.92109C24.4721 5.20785 24.5311 5.5151 24.5284 5.82492C24.5257 6.13474 24.4614 6.44092 24.3391 6.7256C24.2168 7.01027 24.039 7.26774 23.8162 7.48299L13.7992 17.5H10.4998V14.2007L20.5168 4.18365Z" stroke="#29BFC0" stroke-width="2" stroke-linecap="round" stroke-linejoin="round"/>
</svg>
