<svg width="28" height="28" viewBox="0 0 28 28" fill="none" xmlns="http://www.w3.org/2000/svg">
<path d="M5.42857 2C4.51926 2 3.64719 2.36122 3.00421 3.00421C2.36122 3.64719 2 4.51926 2 5.42857V8.85714C2 9.76646 2.36122 10.6385 3.00421 11.2815C3.64719 11.9245 4.51926 12.2857 5.42857 12.2857H8.85714C9.76646 12.2857 10.6385 11.9245 11.2815 11.2815C11.9245 10.6385 12.2857 9.76646 12.2857 8.85714V5.42857C12.2857 4.51926 11.9245 3.64719 11.2815 3.00421C10.6385 2.36122 9.76646 2 8.85714 2H5.42857ZM5.42857 15.7143C4.51926 15.7143 3.64719 16.0755 3.00421 16.7185C2.36122 17.3615 2 18.2335 2 19.1429V22.5714C2 23.4807 2.36122 24.3528 3.00421 24.9958C3.64719 25.6388 4.51926 26 5.42857 26H8.85714C9.76646 26 10.6385 25.6388 11.2815 24.9958C11.9245 24.3528 12.2857 23.4807 12.2857 22.5714V19.1429C12.2857 18.2335 11.9245 17.3615 11.2815 16.7185C10.6385 16.0755 9.76646 15.7143 8.85714 15.7143H5.42857ZM15.7143 5.42857C15.7143 4.51926 16.0755 3.64719 16.7185 3.00421C17.3615 2.36122 18.2335 2 19.1429 2H22.5714C23.4807 2 24.3528 2.36122 24.9958 3.00421C25.6388 3.64719 26 4.51926 26 5.42857V8.85714C26 9.76646 25.6388 10.6385 24.9958 11.2815C24.3528 11.9245 23.4807 12.2857 22.5714 12.2857H19.1429C18.2335 12.2857 17.3615 11.9245 16.7185 11.2815C16.0755 10.6385 15.7143 9.76646 15.7143 8.85714V5.42857ZM15.7143 19.1429C15.7143 18.2335 16.0755 17.3615 16.7185 16.7185C17.3615 16.0755 18.2335 15.7143 19.1429 15.7143H22.5714C23.4807 15.7143 24.3528 16.0755 24.9958 16.7185C25.6388 17.3615 26 18.2335 26 19.1429V22.5714C26 23.4807 25.6388 24.3528 24.9958 24.9958C24.3528 25.6388 23.4807 26 22.5714 26H19.1429C18.2335 26 17.3615 25.6388 16.7185 24.9958C16.0755 24.3528 15.7143 23.4807 15.7143 22.5714V19.1429Z" fill="#2C4364"/>
</svg>
