<svg width="28" height="28" viewBox="0 0 28 28" fill="none" xmlns="http://www.w3.org/2000/svg">
<path d="M2 5C2 4.20435 2.31607 3.44129 2.87868 2.87868C3.44129 2.31607 4.20435 2 5 2H8C8.79565 2 9.55871 2.31607 10.1213 2.87868C10.6839 3.44129 11 4.20435 11 5V8C11 8.79565 10.6839 9.55871 10.1213 10.1213C9.55871 10.6839 8.79565 11 8 11H5C4.20435 11 3.44129 10.6839 2.87868 10.1213C2.31607 9.55871 2 8.79565 2 8V5ZM17 5C17 4.20435 17.3161 3.44129 17.8787 2.87868C18.4413 2.31607 19.2044 2 20 2H23C23.7956 2 24.5587 2.31607 25.1213 2.87868C25.6839 3.44129 26 4.20435 26 5V8C26 8.79565 25.6839 9.55871 25.1213 10.1213C24.5587 10.6839 23.7956 11 23 11H20C19.2044 11 18.4413 10.6839 17.8787 10.1213C17.3161 9.55871 17 8.79565 17 8V5ZM2 20C2 19.2044 2.31607 18.4413 2.87868 17.8787C3.44129 17.3161 4.20435 17 5 17H8C8.79565 17 9.55871 17.3161 10.1213 17.8787C10.6839 18.4413 11 19.2044 11 20V23C11 23.7956 10.6839 24.5587 10.1213 25.1213C9.55871 25.6839 8.79565 26 8 26H5C4.20435 26 3.44129 25.6839 2.87868 25.1213C2.31607 24.5587 2 23.7956 2 23V20ZM17 20C17 19.2044 17.3161 18.4413 17.8787 17.8787C18.4413 17.3161 19.2044 17 20 17H23C23.7956 17 24.5587 17.3161 25.1213 17.8787C25.6839 18.4413 26 19.2044 26 20V23C26 23.7956 25.6839 24.5587 25.1213 25.1213C24.5587 25.6839 23.7956 26 23 26H20C19.2044 26 18.4413 25.6839 17.8787 25.1213C17.3161 24.5587 17 23.7956 17 23V20Z" stroke="#2C4364" stroke-width="2" stroke-linecap="round" stroke-linejoin="round"/>
</svg>
