<svg width="24" height="24" viewBox="0 0 24 24" fill="none" xmlns="http://www.w3.org/2000/svg">
<path d="M3.42857 0C2.51926 0 1.64719 0.361223 1.00421 1.00421C0.361223 1.64719 0 2.51926 0 3.42857V6.85714C0 7.76646 0.361223 8.63853 1.00421 9.28151C1.64719 9.92449 2.51926 10.2857 3.42857 10.2857H6.85714C7.76646 10.2857 8.63853 9.92449 9.28151 9.28151C9.92449 8.63853 10.2857 7.76646 10.2857 6.85714V3.42857C10.2857 2.51926 9.92449 1.64719 9.28151 1.00421C8.63853 0.361223 7.76646 0 6.85714 0H3.42857ZM3.42857 13.7143C2.51926 13.7143 1.64719 14.0755 1.00421 14.7185C0.361223 15.3615 0 16.2335 0 17.1429V20.5714C0 21.4807 0.361223 22.3528 1.00421 22.9958C1.64719 23.6388 2.51926 24 3.42857 24H6.85714C7.76646 24 8.63853 23.6388 9.28151 22.9958C9.92449 22.3528 10.2857 21.4807 10.2857 20.5714V17.1429C10.2857 16.2335 9.92449 15.3615 9.28151 14.7185C8.63853 14.0755 7.76646 13.7143 6.85714 13.7143H3.42857ZM13.7143 3.42857C13.7143 2.51926 14.0755 1.64719 14.7185 1.00421C15.3615 0.361223 16.2335 0 17.1429 0H20.5714C21.4807 0 22.3528 0.361223 22.9958 1.00421C23.6388 1.64719 24 2.51926 24 3.42857V6.85714C24 7.76646 23.6388 8.63853 22.9958 9.28151C22.3528 9.92449 21.4807 10.2857 20.5714 10.2857H17.1429C16.2335 10.2857 15.3615 9.92449 14.7185 9.28151C14.0755 8.63853 13.7143 7.76646 13.7143 6.85714V3.42857ZM13.7143 17.1429C13.7143 16.2335 14.0755 15.3615 14.7185 14.7185C15.3615 14.0755 16.2335 13.7143 17.1429 13.7143H20.5714C21.4807 13.7143 22.3528 14.0755 22.9958 14.7185C23.6388 15.3615 24 16.2335 24 17.1429V20.5714C24 21.4807 23.6388 22.3528 22.9958 22.9958C22.3528 23.6388 21.4807 24 20.5714 24H17.1429C16.2335 24 15.3615 23.6388 14.7185 22.9958C14.0755 22.3528 13.7143 21.4807 13.7143 20.5714V17.1429Z" fill="#2C4364"/>
</svg>
