<svg width="36" height="36" viewBox="0 0 36 36" fill="none" xmlns="http://www.w3.org/2000/svg">
<path d="M18 16.5C18 21.7755 16.4865 26.6985 13.8705 30.8565M8.7105 27.7965L8.7915 27.6615C10.8953 24.3194 12.0078 20.4491 12 16.5C12 14.9087 12.6321 13.3826 13.7574 12.2574C14.8826 11.1321 16.4087 10.5 18 10.5C19.5913 10.5 21.1174 11.1321 22.2426 12.2574C23.3679 13.3826 24 14.9087 24 16.5C24 18.0255 23.895 19.5285 23.6955 21M28.515 27.198C29.4825 23.799 30 20.2095 30 16.5C30.0005 14.3933 29.4463 12.3237 28.3933 10.4991C27.3403 8.67444 25.8255 7.15921 24.0012 6.10567C22.1769 5.05213 20.1073 4.49742 18.0007 4.4973C15.894 4.49718 13.8244 5.05166 12 6.10499M4.5 23.046C5.46 21.0675 6 18.846 6 16.5C6 14.3145 6.585 12.2655 7.605 10.5M20.5185 31.266C21.4443 29.4187 22.1937 27.4882 22.7565 25.5L20.5185 31.266Z" stroke="white" stroke-width="2" stroke-linecap="round" stroke-linejoin="round"/>
</svg>
