<svg width="28" height="28" viewBox="0 0 28 28" fill="none" xmlns="http://www.w3.org/2000/svg">
<path d="M13.9998 17.5V19.8333V17.5ZM6.99984 24.5H20.9998C21.6187 24.5 22.2122 24.2542 22.6498 23.8166C23.0873 23.379 23.3332 22.7855 23.3332 22.1667V15.1667C23.3332 14.5478 23.0873 13.9543 22.6498 13.5168C22.2122 13.0792 21.6187 12.8333 20.9998 12.8333H6.99984C6.381 12.8333 5.78751 13.0792 5.34992 13.5168C4.91234 13.9543 4.6665 14.5478 4.6665 15.1667V22.1667C4.6665 22.7855 4.91234 23.379 5.34992 23.8166C5.78751 24.2542 6.381 24.5 6.99984 24.5ZM18.6665 12.8333V8.16667C18.6665 6.92899 18.1748 5.742 17.2997 4.86683C16.4245 3.99167 15.2375 3.5 13.9998 3.5C12.7622 3.5 11.5752 3.99167 10.7 4.86683C9.82483 5.742 9.33317 6.92899 9.33317 8.16667V12.8333H18.6665Z" stroke="#F2994A" stroke-width="2" stroke-linecap="round" stroke-linejoin="round"/>
</svg>
