<svg width="28" height="28" viewBox="0 0 28 28" fill="none" xmlns="http://www.w3.org/2000/svg">
<path d="M22.1667 12.8333H5.83333M22.1667 12.8333C22.7855 12.8333 23.379 13.0792 23.8166 13.5168C24.2542 13.9543 24.5 14.5478 24.5 15.1667V22.1667C24.5 22.7855 24.2542 23.379 23.8166 23.8166C23.379 24.2542 22.7855 24.5 22.1667 24.5H5.83333C5.21449 24.5 4.621 24.2542 4.18342 23.8166C3.74583 23.379 3.5 22.7855 3.5 22.1667V15.1667C3.5 14.5478 3.74583 13.9543 4.18342 13.5168C4.621 13.0792 5.21449 12.8333 5.83333 12.8333M22.1667 12.8333V10.5C22.1667 9.88116 21.9208 9.28767 21.4832 8.85008C21.0457 8.4125 20.4522 8.16667 19.8333 8.16667M5.83333 12.8333V10.5C5.83333 9.88116 6.07917 9.28767 6.51675 8.85008C6.95434 8.4125 7.54783 8.16667 8.16667 8.16667M19.8333 8.16667V5.83333C19.8333 5.21449 19.5875 4.621 19.1499 4.18342C18.7123 3.74583 18.1188 3.5 17.5 3.5H10.5C9.88116 3.5 9.28767 3.74583 8.85008 4.18342C8.4125 4.621 8.16667 5.21449 8.16667 5.83333V8.16667M19.8333 8.16667H8.16667" stroke="#29BFC0" stroke-width="2" stroke-linecap="round" stroke-linejoin="round"/>
</svg>
