<svg width="26" height="18" viewBox="0 0 26 18" fill="none" xmlns="http://www.w3.org/2000/svg">
<path fill-rule="evenodd" clip-rule="evenodd" d="M16.1426 3.96411C15.7246 3.96411 15.3237 3.78689 15.0281 3.47144C14.7325 3.15599 14.5664 2.72815 14.5664 2.28204C14.5664 1.83593 14.7325 1.40809 15.0281 1.09264C15.3237 0.777193 15.7246 0.599976 16.1426 0.599976H24.0237C24.4417 0.599976 24.8426 0.777193 25.1382 1.09264C25.4338 1.40809 25.5999 1.83593 25.5999 2.28204V10.6924C25.5999 11.1385 25.4338 11.5663 25.1382 11.8818C24.8426 12.1972 24.4417 12.3744 24.0237 12.3744C23.6057 12.3744 23.2047 12.1972 22.9091 11.8818C22.6135 11.5663 22.4475 11.1385 22.4475 10.6924V6.34255L15.6808 13.5637C15.3852 13.879 14.9844 14.0562 14.5664 14.0562C14.1485 14.0562 13.7476 13.879 13.452 13.5637L9.8378 9.70669L3.07113 16.9278C2.77385 17.2342 2.37569 17.4037 1.96242 17.3999C1.54914 17.3961 1.15381 17.2192 0.861564 16.9073C0.569322 16.5954 0.403553 16.1736 0.399962 15.7325C0.396371 15.2915 0.555244 14.8666 0.842363 14.5494L8.72342 6.13902C9.019 5.82368 9.41984 5.64654 9.8378 5.64654C10.2558 5.64654 10.6566 5.82368 10.9522 6.13902L14.5664 9.996L20.2187 3.96411H16.1426Z" fill="#2C4364"/>
</svg>
