<svg width="28" height="28" viewBox="0 0 28 28" fill="none" xmlns="http://www.w3.org/2000/svg">
<path fill-rule="evenodd" clip-rule="evenodd" d="M17.1426 8.96411C16.7246 8.96411 16.3237 8.78689 16.0281 8.47144C15.7325 8.15599 15.5664 7.72815 15.5664 7.28204C15.5664 6.83593 15.7325 6.40809 16.0281 6.09264C16.3237 5.77719 16.7246 5.59998 17.1426 5.59998H25.0237C25.4417 5.59998 25.8426 5.77719 26.1382 6.09264C26.4338 6.40809 26.5999 6.83593 26.5999 7.28204V15.6924C26.5999 16.1385 26.4338 16.5663 26.1382 16.8818C25.8426 17.1972 25.4417 17.3744 25.0237 17.3744C24.6057 17.3744 24.2047 17.1972 23.9091 16.8818C23.6135 16.5663 23.4475 16.1385 23.4475 15.6924V11.3426L16.6808 18.5637C16.3852 18.879 15.9844 19.0562 15.5664 19.0562C15.1485 19.0562 14.7476 18.879 14.452 18.5637L10.8378 14.7067L4.07113 21.9278C3.77385 22.2342 3.37569 22.4037 2.96242 22.3999C2.54914 22.3961 2.15381 22.2192 1.86156 21.9073C1.56932 21.5954 1.40355 21.1736 1.39996 20.7325C1.39637 20.2915 1.55524 19.8666 1.84236 19.5494L9.72342 11.139C10.019 10.8237 10.4198 10.6465 10.8378 10.6465C11.2558 10.6465 11.6566 10.8237 11.9522 11.139L15.5664 14.996L21.2187 8.96411H17.1426Z" fill="#2C4364"/>
</svg>
