<svg width="28" height="28" viewBox="0 0 28 28" fill="none" xmlns="http://www.w3.org/2000/svg">
<path d="M18.6667 8.16667C18.6667 9.40434 18.175 10.5913 17.2998 11.4665C16.4247 12.3417 15.2377 12.8333 14 12.8333C12.7623 12.8333 11.5753 12.3417 10.7002 11.4665C9.82499 10.5913 9.33333 9.40434 9.33333 8.16667C9.33333 6.92899 9.82499 5.742 10.7002 4.86683C11.5753 3.99167 12.7623 3.5 14 3.5C15.2377 3.5 16.4247 3.99167 17.2998 4.86683C18.175 5.742 18.6667 6.92899 18.6667 8.16667V8.16667ZM14 16.3333C11.8341 16.3333 9.75684 17.1937 8.22529 18.7253C6.69374 20.2568 5.83333 22.3341 5.83333 24.5H22.1667C22.1667 22.3341 21.3062 20.2568 19.7747 18.7253C18.2432 17.1937 16.1659 16.3333 14 16.3333V16.3333Z" stroke="#2C4364" stroke-width="2" stroke-linecap="round" stroke-linejoin="round"/>
</svg>
