<svg width="26" height="26" viewBox="0 0 26 26" fill="none" xmlns="http://www.w3.org/2000/svg">
<path d="M17.3332 7.58333C17.3332 8.73261 16.8766 9.83481 16.064 10.6475C15.2513 11.4601 14.1491 11.9167 12.9998 11.9167C11.8506 11.9167 10.7484 11.4601 9.93571 10.6475C9.12305 9.83481 8.6665 8.73261 8.6665 7.58333C8.6665 6.43406 9.12305 5.33186 9.93571 4.5192C10.7484 3.70655 11.8506 3.25 12.9998 3.25C14.1491 3.25 15.2513 3.70655 16.064 4.5192C16.8766 5.33186 17.3332 6.43406 17.3332 7.58333V7.58333ZM12.9998 15.1667C10.9886 15.1667 9.05976 15.9656 7.63761 17.3878C6.21546 18.8099 5.4165 20.7388 5.4165 22.75H20.5832C20.5832 20.7388 19.7842 18.8099 18.3621 17.3878C16.9399 15.9656 15.0111 15.1667 12.9998 15.1667V15.1667Z" stroke="#ED6161" stroke-width="1.5" stroke-linecap="round" stroke-linejoin="round"/>
</svg>
