<svg width="28" height="28" viewBox="0 0 28 28" fill="none" xmlns="http://www.w3.org/2000/svg">
<path fill-rule="evenodd" clip-rule="evenodd" d="M14 12.2C15.2503 12.2 16.4494 11.7154 17.3335 10.8527C18.2176 9.99002 18.7143 8.82 18.7143 7.6C18.7143 6.38 18.2176 5.20998 17.3335 4.34731C16.4494 3.48464 15.2503 3 14 3C12.7497 3 11.5506 3.48464 10.6665 4.34731C9.7824 5.20998 9.28571 6.38 9.28571 7.6C9.28571 8.82 9.7824 9.99002 10.6665 10.8527C11.5506 11.7154 12.7497 12.2 14 12.2ZM4 26C3.44772 26 2.99506 25.5513 3.0477 25.0015C3.14988 23.9343 3.4155 22.8862 3.83733 21.8925C4.39013 20.5903 5.20038 19.4071 6.22183 18.4104C7.24327 17.4137 8.4559 16.6231 9.79048 16.0837C11.1251 15.5443 12.5555 15.2667 14 15.2667C15.4445 15.2667 16.8749 15.5443 18.2095 16.0837C19.5441 16.6231 20.7567 17.4137 21.7782 18.4104C22.7996 19.4071 23.6099 20.5903 24.1627 21.8925C24.5845 22.8862 24.8501 23.9343 24.9523 25.0015C25.0049 25.5513 24.5523 26 24 26H4Z" fill="#2C4364"/>
</svg>
